<svg width="23" height="23" viewBox="0 0 23 23" fill="none" xmlns="http://www.w3.org/2000/svg">
<path d="M19.5 12.5C20.3284 12.5 21.011 13.1749 20.893 13.9949C20.6707 15.5409 20.1052 17.0244 19.2304 18.3335C18.0767 20.0602 16.4368 21.406 14.5182 22.2007C12.5996 22.9955 10.4884 23.2034 8.45155 22.7982C6.41475 22.3931 4.54383 21.3931 3.07538 19.9246C1.60693 18.4562 0.606899 16.5852 0.201755 14.5484C-0.20339 12.5116 0.00454478 10.4004 0.799265 8.48182C1.59399 6.5632 2.9398 4.92332 4.66651 3.76957C5.97562 2.89485 7.4591 2.32933 9.00506 2.10696C9.82505 1.98901 10.5 2.67157 10.5 3.5V11C10.5 11.8284 11.1716 12.5 12 12.5H19.5Z" fill="#979797"/>
<path d="M21 10.5C22.1046 10.5 23.0192 9.59665 22.8101 8.51206C22.6763 7.81816 22.4725 7.13786 22.2007 6.48182C21.6731 5.20791 20.8996 4.05039 19.9246 3.07538C18.9496 2.10036 17.7921 1.32694 16.5182 0.799265C15.8621 0.527525 15.1818 0.323698 14.4879 0.189903C13.4033 -0.0192223 12.5 0.895431 12.5 2V8.5C12.5 9.60457 13.3954 10.5 14.5 10.5H21Z" fill="#979797"/>
</svg>
