<svg width="34" height="23" viewBox="0 0 34 23" fill="none" xmlns="http://www.w3.org/2000/svg">
<rect x="0.65" y="0.65" width="32.7" height="21.7" rx="2.35" fill="#979797" stroke="#2F2F2F" stroke-width="1.3"/>
<line y1="7.5" x2="7" y2="7.5" stroke="#2F2F2F"/>
<line y1="14.5" x2="7" y2="14.5" stroke="#2F2F2F"/>
<circle cx="18.5" cy="11.5" r="7.85" stroke="#2F2F2F" stroke-width="1.3"/>
<path d="M18.0835 15.1538C19.415 15.1538 20.3774 14.2222 20.3774 12.9478V12.939C20.3774 11.7261 19.5117 10.8296 18.3032 10.8296C17.4375 10.8296 16.8662 11.2822 16.6333 11.792H16.5498C16.5498 11.7437 16.5498 11.6953 16.5542 11.647C16.6025 10.3813 17.0464 9.33984 18.1143 9.33984C18.7119 9.33984 19.125 9.64746 19.3008 10.1309L19.3184 10.1748H20.2939L20.2852 10.1221C20.0742 9.16406 19.2393 8.50488 18.1187 8.50488C16.5498 8.50488 15.6138 9.77051 15.6138 11.915V11.9238C15.6138 14.2573 16.8091 15.1538 18.0835 15.1538ZM16.7432 12.9478V12.9434C16.7432 12.1787 17.3232 11.625 18.0835 11.625C18.8525 11.625 19.4062 12.1875 19.4062 12.9653V12.9741C19.4062 13.7344 18.8174 14.3276 18.0747 14.3276C17.3276 14.3276 16.7432 13.7212 16.7432 12.9478Z" fill="#2F2F2F"/>
</svg>
