<svg width="26" height="24" viewBox="0 0 26 24" fill="none" xmlns="http://www.w3.org/2000/svg">
<path d="M3 13H12V24H6C4.34315 24 3 22.6569 3 21V13Z" fill="#979797"/>
<path d="M0 9C0 10.1046 0.895431 11 2 11H12V7H2C0.895431 7 0 7.89543 0 9Z" fill="#979797"/>
<path d="M14 13H23V21C23 22.6569 21.6569 24 20 24H14V13Z" fill="#979797"/>
<path d="M14 11H24C25.1046 11 26 10.1046 26 9C26 7.89543 25.1046 7 24 7H14V11Z" fill="#979797"/>
<path d="M14.957 8C17.9892 7.77034 22.2366 6.34644 18.598 2.48815C14.9593 -1.37015 13.3499 3.17713 13 5.93306" stroke="#979797" stroke-width="1.3" stroke-linecap="round"/>
<path d="M11.043 8C8.01078 7.77034 3.76337 6.34644 7.40204 2.48815C11.0407 -1.37015 12.6501 3.17713 13 5.93306" stroke="#979797" stroke-width="1.3" stroke-linecap="round"/>
</svg>
